<?xml version="1.0" encoding="UTF-8"?>
<svg viewBox="0 0 140 130" version="1.1" xmlns="http://www.w3.org/2000/svg" xmlns:xlink="http://www.w3.org/1999/xlink">
    <!-- Generator: Sketch 49.1 (51147) - http://www.bohemiancoding.com/sketch -->
    <title>Shape</title>
    <desc>Created with Sketch.</desc>
    <defs></defs>
    <g id="Page-1" stroke="none" stroke-width="1" fill="none" fill-rule="evenodd">
        <g id="Telenor-Symbol" transform="translate(-23.000000, -39.000000)" fill="#01ACFB" fill-rule="nonzero">
            <path d="M93.87,79 C95.87,79.31 96.28,78.9 96.54,77 C97.2022688,72.5817513 98.5130615,68.2854514 100.43,64.25 C103,58.87 107.21,53 113,49 C118.894462,45.1949819 125.384067,42.4030995 132.2,40.74 C136.792963,39.7250512 141.513143,39.4114964 146.2,39.81 C154.63,40.57 159.29,42.97 161.63,46.08 C162.408649,47.0973281 162.883605,48.3141851 163,49.59 C163.07,51.14 162.39,53.15 160.17,55.13 C157.95,57.11 153.4,59.45 147.11,61.56 C140.58,63.73 131.66,66.03 122.77,68.07 C117.617473,69.2351948 112.535835,70.6942458 107.55,72.44 C101.67,74.44 99.89,80.29 103.55,82.07 C107.6694,84.1146638 111.516088,86.6679237 115,89.67 C120.599532,94.0939244 125.714733,99.0985082 130.26,104.6 C135.79,111.36 144.85,124.26 148.1,136.78 C151.71,150.53 149.45,163.56 141.67,167.2 C134.04,170.78 123.88,165.62 116.75,158.2 C109.96,151.2 105.23,142.91 100.75,130.2 C96.89,119.2 95.32,103.34 95.33,95.02 C95.33,92.25 95.33,91.66 95.4,89.16 C95.66,86.98 89.78,85.16 83.46,89.24 C76.27,93.87 69.23,102.24 65.07,107.12 C63.26,109.25 60.81,112.37 58.21,115.64 C54.78,119.94 51,124.41 47.56,126.91 C42.37,130.69 34.04,132.25 28.2,128.09 C24.95,125.77 23.2,121.39 23.2,116.94 C23.1555739,113.863292 23.9470413,110.832214 25.49,108.17 C27.49,104.74 30.67,101.05 35.77,96.83 C42.5213308,91.5947237 49.9783279,87.3393538 57.92,84.19 C70.81,79 84.67,77.35 93.87,79 Z" id="Shape"></path>
        </g>
    </g>
</svg>